<?xml version="1.0" standalone="no"?>
<!DOCTYPE svg PUBLIC "-//W3C//DTD SVG 20010904//EN"
 "http://www.w3.org/TR/2001/REC-SVG-20010904/DTD/svg10.dtd">
<svg version="1.0" xmlns="http://www.w3.org/2000/svg"
 width="500.000000pt" height="500.000000pt" viewBox="0 0 500.000000 500.000000"
 preserveAspectRatio="xMidYMid meet">
<metadata>
Created by potrace 1.14, written by Peter Selinger 2001-2017
</metadata>
<g transform="translate(0.000000,500.000000) scale(0.100000,-0.100000)"
fill="#000000" stroke="none">
<path d="M2610 4483 c0 -4 -66 -8 -148 -8 -127 -1 -266 -10 -282 -20 -3 -2
-27 -6 -53 -9 -117 -16 -373 -102 -509 -172 -27 -13 -48 -22 -48 -19 0 3 -8
-2 -17 -10 -10 -8 -21 -15 -26 -15 -4 0 -13 -4 -20 -10 -26 -23 -133 -89 -144
-90 -6 0 -13 -4 -15 -8 -1 -5 -41 -39 -88 -76 -102 -82 -221 -201 -313 -314
-65 -81 -186 -267 -188 -287 0 -5 -6 -17 -13 -25 -11 -13 -25 -41 -71 -145
-53 -118 -114 -334 -131 -465 -3 -25 -9 -72 -14 -105 -8 -65 -6 -385 4 -450 4
-22 11 -66 17 -98 5 -31 7 -62 3 -69 -4 -6 -3 -8 3 -5 6 4 14 -11 18 -36 4
-23 9 -48 11 -55 2 -6 6 -20 8 -30 3 -9 5 -18 6 -19 2 -2 3 -6 4 -10 14 -62
74 -209 129 -318 52 -102 154 -267 169 -273 4 -2 8 -8 8 -14 0 -5 7 -16 15
-25 8 -8 12 -19 9 -25 -4 -6 -3 -8 3 -5 5 3 25 -13 43 -36 55 -67 199 -209
275 -269 132 -105 340 -234 425 -263 3 -1 16 -6 30 -12 14 -6 48 -20 75 -30
28 -11 59 -23 70 -28 11 -4 25 -9 30 -10 6 -2 30 -8 55 -16 62 -17 57 -16 140
-34 95 -21 106 -23 160 -31 77 -10 402 -12 470 -3 108 15 135 19 160 24 14 3
45 10 70 15 89 18 236 67 365 123 112 48 317 171 378 226 15 13 27 21 27 16 0
-5 7 1 16 13 8 12 21 22 27 22 7 0 18 9 25 20 7 12 17 18 23 15 5 -4 9 -3 7 2
-1 4 34 44 78 88 44 44 102 107 129 140 28 33 52 62 55 65 5 5 43 60 82 119
10 14 28 44 40 66 12 22 28 49 34 60 13 20 65 126 90 180 43 95 117 355 130
459 3 23 8 52 10 66 3 14 7 106 9 205 4 186 -7 307 -40 460 -10 44 -18 88 -19
98 0 9 -4 17 -8 17 -4 0 -8 7 -8 16 0 10 -9 44 -21 78 -28 82 -31 89 -73 179
-20 43 -33 84 -30 90 4 7 4 9 -1 5 -4 -4 -27 25 -49 65 -66 114 -68 117 -134
205 -34 46 -60 88 -56 93 3 5 1 8 -4 7 -11 -3 -112 99 -112 113 0 5 -3 9 -7 9
-5 0 -30 21 -57 46 -26 25 -83 73 -125 106 -42 34 -75 65 -73 70 1 5 -2 7 -8
3 -6 -4 -32 9 -58 28 -77 57 -309 178 -342 179 -3 0 -9 3 -15 8 -12 9 -228 80
-265 86 -14 3 -57 11 -96 19 -39 8 -102 17 -140 21 -89 9 -87 8 -101 17 -7 5
-13 5 -13 0z"/>
</g>
</svg>
