<?xml version="1.0" standalone="no"?>
<!DOCTYPE svg PUBLIC "-//W3C//DTD SVG 20010904//EN"
 "http://www.w3.org/TR/2001/REC-SVG-20010904/DTD/svg10.dtd">
<svg version="1.0" xmlns="http://www.w3.org/2000/svg"
 width="800.000000pt" height="800.000000pt" viewBox="0 0 800.000000 800.000000"
 preserveAspectRatio="xMidYMid meet">
<metadata>
Created by potrace 1.14, written by Peter Selinger 2001-2017
</metadata>
<g transform="translate(0.000000,800.000000) scale(0.100000,-0.100000)"
fill="#000000" stroke="none">
<path d="M0 4000 l0 -4000 4000 0 4000 0 0 4000 0 4000 -4000 0 -4000 0 0
-4000z m4060 1836 c308 -55 549 -183 778 -412 l122 -123 0 250 0 249 460 0
460 0 0 -1800 0 -1800 -460 0 -460 0 0 261 0 260 -60 -75 c-191 -237 -517
-423 -845 -482 -123 -22 -432 -25 -545 -6 -523 91 -943 412 -1184 906 -143
292 -201 566 -200 951 0 310 34 521 120 753 231 618 703 1003 1331 1082 97 12
383 4 483 -14z"/>
<path d="M3838 5045 c-379 -72 -659 -350 -750 -748 -18 -75 -22 -125 -22 -267
0 -102 5 -202 12 -240 46 -234 148 -427 304 -576 109 -104 230 -174 385 -220
78 -24 105 -27 238 -27 173 -1 262 17 402 83 104 49 161 88 247 169 200 192
306 465 306 791 0 326 -106 599 -306 791 -173 164 -373 247 -619 255 -78 2
-147 -1 -197 -11z"/>
</g>
</svg>
